# xmcd CD database file generated by OrangeCD 5.1
#
# Track frame offsets:
#	150
#	15645
#	31960
#	47780
#	64280
#	77712
#	91832
#	104915
#	117812
#	132925
#	146805
#	165117
#	179300
#	198585
#	219157
#	237732
#
# Disc length: 3344 seconds
#
# Revision: 1
# Processed by: cddbd v1.5PL3 Copyright (c) Steve Scherf et al.
# Submitted via: OrangeCD 5.1
#
DISCID=e00d0e10
DTITLE=Bill Wyman and The Rhythm Kings - Anyway The Wind Blows
DYEAR=1999
DGENRE=Blues
TTITLE0=Anyway The Wind Blows
TTITLE1=Spooky
TTITLE2=Walking One and Only
TTITLE3=Mojo Boogie
TTITLE4=Too Late
TTITLE5=Every Sixty Seconds
TTITLE6=Ring My Bell
TTITLE7=Days Like This
TTITLE8=He's A Real Gone Guy
TTITLE9=A True Romance
TTITLE10=Gee Baby Ain't Good To You
TTITLE11=When Hollywood Goes Black and Tan
TTITLE12=Crazy He Calls Me
TTITLE13=Struttin' Our Stuff
TTITLE14=Sugar Babe
TTITLE15=Gonna Find Me A New Love
EXTD=
EXTT0=
EXTT1=
EXTT2=
EXTT3=
EXTT4=
EXTT5=
EXTT6=
EXTT7=
EXTT8=
EXTT9=
EXTT10=
EXTT11=
EXTT12=
EXTT13=
EXTT14=
EXTT15=
PLAYORDER=
